<?xml version="1.0" encoding="UTF-8" standalone="no"?>
<svg
   xmlns:dc="http://purl.org/dc/elements/1.1/"
   xmlns:cc="http://creativecommons.org/ns#"
   xmlns:rdf="http://www.w3.org/1999/02/22-rdf-syntax-ns#"
   xmlns:svg="http://www.w3.org/2000/svg"
   xmlns="http://www.w3.org/2000/svg"
   viewBox="0 0 758.41333 758.41333"
   height="758.41333"
   width="758.41333"
   xml:space="preserve"
   id="svg2"
   version="1.1"><metadata
     id="metadata8"><rdf:RDF><cc:Work
         rdf:about=""><dc:format>image/svg+xml</dc:format><dc:type
           rdf:resource="http://purl.org/dc/dcmitype/StillImage" /></cc:Work></rdf:RDF></metadata><defs
     id="defs6"><clipPath
       id="clipPath18"
       clipPathUnits="userSpaceOnUse"><path
         id="path16"
         d="M 0,568.81 H 568.81 V 0 H 0 Z" /></clipPath><clipPath
       id="clipPath34"
       clipPathUnits="userSpaceOnUse"><path
         id="path32"
         d="M 6.2341,562.33 H 565.275 V 3.56575 H 6.2341 Z" /></clipPath></defs><g
     transform="matrix(1.3333333,0,0,-1.3333333,0,758.41333)"
     id="g10"><g
       id="g12"><g
         clip-path="url(#clipPath18)"
         id="g14"><g
           transform="translate(-2e-4,284.4052)"
           id="g20"><path
             id="path22"
             style="fill:#eb613d;fill-opacity:1;fill-rule:nonzero;stroke:none"
             d="M 0,0 C 0,157.072 127.333,284.405 284.405,284.405 441.478,284.405 568.81,157.072 568.81,0 568.81,-157.073 441.478,-284.405 284.405,-284.405 127.333,-284.405 0,-157.073 0,0" /></g><g
           transform="translate(42.4544,284.4023)"
           id="g24"><path
             id="path26"
             style="fill:#ffffff;fill-opacity:1;fill-rule:nonzero;stroke:none"
             d="M 0,0 C 0,133.627 108.326,241.953 241.954,241.953 375.581,241.953 483.907,133.627 483.907,0 483.907,-133.628 375.581,-241.954 241.954,-241.954 108.326,-241.954 0,-133.628 0,0" /></g><g
           id="g28"><g
             id="g30" /><g
             id="g62"><g
               id="g60"
               clip-path="url(#clipPath34)"><g
                 id="g38"
                 transform="translate(451.886,166.5859)"><path
                   id="path36"
                   style="fill:#eb613d;fill-opacity:1;fill-rule:nonzero;stroke:none"
                   d="m 0,0 c -4.534,0 -8.589,0.069 -12.64,-0.02 -4.035,-0.088 -7.454,-1.509 -8.576,-5.74 -1.151,-4.34 0.734,-7.598 4.591,-9.693 1.703,-0.925 3.672,-1.422 5.239,-2.516 1.131,-0.79 1.798,-2.245 2.671,-3.403 -1.561,-0.051 -3.202,-0.431 -4.668,-0.079 -2.503,0.597 -4.896,1.655 -7.592,2.61 v -9.478 c 4.724,0 9.236,-0.653 13.428,0.222 2.948,0.615 6.625,2.747 7.822,5.239 1.064,2.21 -0.183,6.233 -1.647,8.731 -1.149,1.96 -4.19,2.807 -6.385,4.158 -1.674,1.031 -3.337,2.08 -5.005,3.122 0.187,0.586 0.373,1.172 0.559,1.758 C -8.265,-6.134 -4.327,-7.178 0,-8.326 Z m -260.923,-28.065 h 12.702 c -0.642,1.998 -1.259,3.543 -1.607,5.146 -0.196,0.904 -0.015,2.729 0.11,2.739 2.336,0.19 4.689,0.168 7.038,0.192 -0.332,-1.271 -0.8,-2.526 -0.957,-3.818 -0.167,-1.375 -0.037,-2.785 -0.037,-4.277 h 14.368 c 0,2.135 0.557,4.266 -0.109,5.896 -1.715,4.195 -4.009,8.151 -5.983,12.246 -0.393,0.814 -0.722,1.911 -0.502,2.72 0.594,2.185 1.5,4.283 2.485,6.971 h -21.92 c 0.869,-2.969 2.569,-5.651 2.122,-7.907 -0.873,-4.396 -2.901,-8.571 -4.546,-12.8 -0.852,-2.192 -1.907,-4.306 -3.164,-7.108 m 193.378,18.858 v 8.908 h -28.07 c 4.692,-9.385 3.752,-18.544 0.555,-27.628 h 27.475 v 9.307 c -4.794,-1.102 -9.073,-2.085 -13.577,-3.12 v 4.763 c 1.898,0.289 3.573,0.542 5.108,0.775 v 5.052 c -5.081,0.639 -5.081,0.639 -4.719,4.546 4.324,-0.85 8.588,-1.69 13.228,-2.603 m -237.996,8.593 c -4.896,0.56 -9.368,1.213 -13.864,1.554 -6.992,0.531 -13.218,-3.444 -15.227,-9.663 -1.688,-5.221 -1.757,-10.636 2.279,-14.613 4.767,-4.696 11.041,-5.972 17.598,-4.477 7.201,1.64 10.494,6.262 10.144,13.917 h -13.342 c 1.413,-2.138 2.384,-3.609 3.898,-5.903 -1.68,-0.517 -3.634,-1.796 -5.122,-1.386 -1.482,0.409 -3.045,2.33 -3.573,3.919 -0.633,1.906 -0.415,4.185 -0.199,6.263 0.513,4.942 4.705,6.588 8.809,3.923 2.39,-1.553 5.256,-2.372 8.599,-3.821 z m 151.135,-8.175 c 0.571,-0.104 1.142,-0.208 1.714,-0.312 -0.893,-6.307 -1.785,-12.614 -2.678,-18.925 h 15.835 c -4.91,9.343 -4.188,18.444 -0.452,27.797 h -17.783 c -1.403,-3.19 -2.805,-6.376 -4.454,-10.123 -1.269,3.125 -2.119,5.59 -3.279,7.899 -0.493,0.981 -1.608,2.292 -2.489,2.33 -5.119,0.222 -10.252,0.108 -16.654,0.108 4.405,-9.697 4.206,-18.736 0.446,-27.998 h 11.645 c -0.889,6.534 -1.738,12.779 -2.588,19.024 0.494,0.089 0.987,0.177 1.481,0.267 2.119,-5.571 4.131,-11.185 6.438,-16.676 0.504,-1.2 2.045,-2.683 3.138,-2.708 1.062,-0.025 2.659,1.446 3.161,2.626 2.336,5.495 4.374,11.116 6.519,16.691 m -30.34,244.266 v -58.414 c -3.401,-0.166 -6.558,-0.321 -9.762,-0.478 v -26.437 h 63.701 v 26.675 h -9.769 v 58.665 h 9.836 v 26.759 h -63.834 v -26.77 z m -19.183,-134.741 c -5.309,-14.714 -10.48,-28.711 -15.379,-42.801 -1.787,-5.14 -2.674,-10.78 -10.343,-8.615 V 25.611 h 38.909 v 21.473 c -2.671,0.191 -4.974,0.356 -7.585,0.544 1.251,3.603 2.051,6.608 3.369,9.365 0.537,1.124 2.179,2.397 3.353,2.431 7.461,0.22 14.932,0.111 22.647,0.111 1.181,-3.997 2.301,-7.79 3.522,-11.924 -3.042,-0.211 -5.421,-0.375 -8.012,-0.554 V 25.648 h 51.249 v 24.154 c -6.584,-2.755 -7.756,1.689 -9.319,6.058 -4.697,13.135 -9.582,26.203 -14.371,39.306 -0.633,1.735 -1.133,3.52 -1.793,5.586 2.754,0.215 4.827,0.376 7.148,0.557 v 23.408 h -70.979 v -23.418 c 2.507,-0.186 4.726,-0.351 7.584,-0.563 M -287.933,49.51 v 16.033 h 18.778 v 20.436 h -18.766 v 14.65 h 21.558 c 0.177,-2.756 0.329,-5.107 0.479,-7.42 h 25.813 v 31.387 h -94.476 v -23.269 c 2.599,-0.223 4.959,-0.425 7.263,-0.622 V 49.571 c -2.506,-0.197 -4.74,-0.373 -7.241,-0.57 v -23.27 h 94.339 v 31.392 h -25.702 c -0.185,-2.644 -0.351,-5.017 -0.532,-7.613 z m 228.085,-0.561 c -2.492,0.222 -4.714,0.419 -7.017,0.624 V 65.9 c 1.769,0 3.25,-0.217 4.644,0.038 5.312,0.976 8.129,-1.35 10.443,-6.119 5.101,-10.51 10.794,-20.738 16.384,-31.005 0.747,-1.371 2.282,-3.257 3.488,-3.285 11.343,-0.251 22.692,-0.148 34.075,-0.148 v 22.837 c -3.026,1.104 -6.489,1.271 -7.714,3.012 -4.551,6.471 -8.365,13.46 -12.523,20.368 0.954,0.67 1.602,1.141 2.267,1.589 16.056,10.808 16.232,34.422 -0.326,44.594 -5.688,3.495 -13.025,5.701 -19.702,5.946 -25.662,0.937 -51.361,0.842 -77.047,1.111 -0.27,0.003 -0.541,-0.275 -0.841,-0.438 v -23.101 c 2.686,-0.213 5.04,-0.399 7.34,-0.581 V 49.563 c -2.647,-0.213 -5.004,-0.404 -7.311,-0.59 V 25.714 h 53.84 z M 2.899,209.698 h -50.292 v -21.267 h 10.5 c 0.007,-7.44 -2.311,-11.823 -7.618,-13.604 -8.942,-3.003 -22.296,-1.106 -25.601,12.96 -2.604,11.08 -2.597,22.284 -0.496,33.383 2.413,12.75 10.32,18.026 23.225,16.198 7.239,-1.025 12.531,-4.924 16.492,-10.935 0.834,-1.265 2.11,-3.136 3.231,-3.171 8.52,-0.267 17.053,-0.146 25.629,-0.146 v 39.209 H -28.99 c -0.1,-2.255 -0.188,-4.269 -0.275,-6.259 -4.663,2.165 -8.841,4.851 -13.414,6.112 -40.733,11.224 -80.731,-14.557 -78.228,-59.794 1.313,-23.725 15.213,-42.555 37.712,-49.861 14.323,-4.65 29.019,-5.543 43.809,-3.062 20.272,3.401 36.657,18.404 40.114,36.981 1.386,7.45 1.456,15.145 2.171,23.256 m -337.297,-59.411 c 0.698,-0.169 1.155,-0.378 1.611,-0.375 27.807,0.18 55.62,0.08 83.414,0.765 7.828,0.193 15.904,1.8 23.326,4.338 11.844,4.049 18.494,13.127 18.983,25.761 0.471,12.175 -5.979,20.517 -16.421,26.064 -2.095,1.113 -4.294,2.03 -6.932,3.265 1.795,0.765 2.955,1.268 4.122,1.754 21.579,8.987 17.223,33.162 5.366,42.123 -6.948,5.252 -14.938,7.367 -23.264,7.523 -29.746,0.559 -59.5,0.696 -89.251,0.974 -0.273,0.002 -0.549,-0.26 -0.806,-0.39 v -26.848 h 9.005 V 176.75 h -9.153 z m 447.788,-22.42 v -22.451 c -0.325,-0.831 -0.837,-1.639 -0.944,-2.497 -1.679,-13.522 -2.481,-27.212 -5.09,-40.55 C 96.422,6.454 70.521,-41.783 29.964,-81.67 c -47.801,-47.012 -105.387,-73.651 -172.334,-79.662 -4.565,-0.41 -9.103,-1.118 -13.653,-1.689 h -21.475 c -0.994,0.326 -1.966,0.801 -2.986,0.954 -18.125,2.702 -36.623,3.883 -54.329,8.27 -138.19,34.235 -228.413,168.944 -207.95,310.261 9.077,62.688 36.2,116.723 82.076,160.51 64.609,61.665 141.927,87.048 230.485,76.418 63.164,-7.583 117.317,-34.931 161.981,-80.059 47.203,-47.692 73.853,-105.333 79.905,-172.326 0.397,-4.396 1.129,-8.76 1.706,-13.14" /></g><g
                 id="g42"
                 transform="translate(170.7342,363.706)"><path
                   id="path40"
                   style="fill:#ec633f;fill-opacity:1;fill-rule:nonzero;stroke:none"
                   d="m 0,0 c 6.834,-0.53 13.292,-0.598 19.584,-1.653 5.311,-0.89 7.653,-4.825 7.438,-10.339 -0.204,-5.244 -2.671,-8.561 -8.083,-9.348 C 12.913,-22.217 6.776,-22.338 0,-22.839 v 11.226 z" /></g><g
                 id="g46"
                 transform="translate(171.0066,384.5761)"><path
                   id="path44"
                   style="fill:#ec633e;fill-opacity:1;fill-rule:nonzero;stroke:none"
                   d="M 0,0 V 19.972 C 5.912,19.611 11.564,19.602 17.109,18.826 22,18.141 24.692,14.435 24.791,9.632 24.894,4.668 22.146,0.723 16.951,0.136 11.536,-0.475 5.999,0 0,0" /></g><g
                 id="g50"
                 transform="translate(384.9769,269.7558)"><path
                   id="path48"
                   style="fill:#ec6540;fill-opacity:1;fill-rule:nonzero;stroke:none"
                   d="m 0,0 c 5.375,-0.284 10.531,-0.248 15.595,-0.915 4.489,-0.592 7.661,-4.688 7.342,-8.903 -0.341,-4.496 -2.705,-7.778 -7.292,-8.415 C 10.587,-18.937 5.44,-19.001 0,-19.366 Z" /></g><g
                 id="g54"
                 transform="translate(278.9363,238.9374)"><path
                   id="path52"
                   style="fill:#ec6540;fill-opacity:1;fill-rule:nonzero;stroke:none"
                   d="m 0,0 h -17.305 c 2.925,8.61 5.758,16.952 9.091,26.766 C -5.235,17.058 -2.689,8.762 0,0" /></g><g
                 id="g58"
                 transform="translate(206.303,158.2197)"><path
                   id="path56"
                   style="fill:#ee724f;fill-opacity:1;fill-rule:nonzero;stroke:none"
                   d="m 0,0 c 0.627,-2.252 1.255,-4.504 1.973,-7.079 h -5.068 c 0.782,2.607 1.493,4.977 2.204,7.347 C -0.594,0.178 -0.297,0.089 0,0" /></g></g></g></g></g></g></g></svg>